<svg xmlns="http://www.w3.org/2000/svg" viewBox="0 0 440 200.02"><defs><style>.\35 cce8de7-4e0b-43d5-b72f-54e40d35e904{fill:none;}.\38 c7bdd87-f230-4dad-8b43-db87988ce308{fill:#161b1d;opacity:0.075;}</style></defs><title>Asset 2</title><g id="77dfb2b2-c0fb-4da4-897c-5f093c21df89" data-name="Layer 2"><g id="9a753e04-cca1-4dae-87cb-fb216f3e3a9c" data-name="Layer 2"><rect class="5cce8de7-4e0b-43d5-b72f-54e40d35e904" width="440" height="200"/><path class="8c7bdd87-f230-4dad-8b43-db87988ce308" d="M12,176.76A12,12,0,0,0,23.26,188a.67.67,0,0,0,.71-.71A12,12,0,0,0,12.74,176,.67.67,0,0,0,12,176.76Z"/><path class="8c7bdd87-f230-4dad-8b43-db87988ce308" d="M.74,188A12,12,0,0,0,12,176.76a.67.67,0,0,0-.71-.71A12,12,0,0,0,0,187.29.67.67,0,0,0,.74,188Z"/><path class="8c7bdd87-f230-4dad-8b43-db87988ce308" d="M12.74,200A12,12,0,0,0,24,188.76a.67.67,0,0,0-.71-.71A12,12,0,0,0,12,199.29.67.67,0,0,0,12.74,200Z"/><path class="8c7bdd87-f230-4dad-8b43-db87988ce308" d="M0,188.76A12,12,0,0,0,11.26,200a.67.67,0,0,0,.71-.71A12,12,0,0,0,.74,188,.67.67,0,0,0,0,188.76Z"/><circle class="8c7bdd87-f230-4dad-8b43-db87988ce308" cx="12" cy="188.02" r="2"/><path class="8c7bdd87-f230-4dad-8b43-db87988ce308" d="M22,176a2,2,0,0,0,2,2h0v-2Z"/><path class="8c7bdd87-f230-4dad-8b43-db87988ce308" d="M0,176v2a2,2,0,0,0,2-2Z"/><path class="8c7bdd87-f230-4dad-8b43-db87988ce308" d="M22,200h2v-2h0A2,2,0,0,0,22,200Z"/><path class="8c7bdd87-f230-4dad-8b43-db87988ce308" d="M0,198v2H2A2,2,0,0,0,0,198Z"/><path class="8c7bdd87-f230-4dad-8b43-db87988ce308" d="M36,176.76A12,12,0,0,0,47.26,188a.67.67,0,0,0,.71-.71A12,12,0,0,0,36.74,176,.67.67,0,0,0,36,176.76Z"/><path class="8c7bdd87-f230-4dad-8b43-db87988ce308" d="M24.74,188A12,12,0,0,0,36,176.76a.67.67,0,0,0-.71-.71A12,12,0,0,0,24,187.29.67.67,0,0,0,24.74,188Z"/><path class="8c7bdd87-f230-4dad-8b43-db87988ce308" d="M36.74,200A12,12,0,0,0,48,188.76a.67.67,0,0,0-.71-.71A12,12,0,0,0,36,199.29.67.67,0,0,0,36.74,200Z"/><path class="8c7bdd87-f230-4dad-8b43-db87988ce308" d="M24,188.76A12,12,0,0,0,35.26,200a.67.67,0,0,0,.71-.71A12,12,0,0,0,24.74,188,.67.67,0,0,0,24,188.76Z"/><circle class="8c7bdd87-f230-4dad-8b43-db87988ce308" cx="36" cy="188.02" r="2"/><path class="8c7bdd87-f230-4dad-8b43-db87988ce308" d="M46,176a2,2,0,0,0,2,2h0v-2Z"/><path class="8c7bdd87-f230-4dad-8b43-db87988ce308" d="M24,176v2a2,2,0,0,0,2-2Z"/><path class="8c7bdd87-f230-4dad-8b43-db87988ce308" d="M46,200h2v-2h0A2,2,0,0,0,46,200Z"/><path class="8c7bdd87-f230-4dad-8b43-db87988ce308" d="M24,198v2h2A2,2,0,0,0,24,198Z"/><path class="8c7bdd87-f230-4dad-8b43-db87988ce308" d="M60,176.76A12,12,0,0,0,71.26,188a.67.67,0,0,0,.71-.71A12,12,0,0,0,60.74,176,.67.67,0,0,0,60,176.76Z"/><path class="8c7bdd87-f230-4dad-8b43-db87988ce308" d="M48.74,188A12,12,0,0,0,60,176.76a.67.67,0,0,0-.71-.71A12,12,0,0,0,48,187.29.67.67,0,0,0,48.74,188Z"/><path class="8c7bdd87-f230-4dad-8b43-db87988ce308" d="M60.74,200A12,12,0,0,0,72,188.76a.67.67,0,0,0-.71-.71A12,12,0,0,0,60,199.29.67.67,0,0,0,60.74,200Z"/><path class="8c7bdd87-f230-4dad-8b43-db87988ce308" d="M48,188.76A12,12,0,0,0,59.26,200a.67.67,0,0,0,.71-.71A12,12,0,0,0,48.74,188,.67.67,0,0,0,48,188.76Z"/><circle class="8c7bdd87-f230-4dad-8b43-db87988ce308" cx="60" cy="188.02" r="2"/><path class="8c7bdd87-f230-4dad-8b43-db87988ce308" d="M70,176a2,2,0,0,0,2,2h0v-2Z"/><path class="8c7bdd87-f230-4dad-8b43-db87988ce308" d="M48,176v2a2,2,0,0,0,2-2Z"/><path class="8c7bdd87-f230-4dad-8b43-db87988ce308" d="M70,200h2v-2h0A2,2,0,0,0,70,200Z"/><path class="8c7bdd87-f230-4dad-8b43-db87988ce308" d="M48,198v2h2A2,2,0,0,0,48,198Z"/><path class="8c7bdd87-f230-4dad-8b43-db87988ce308" d="M84,176.76A12,12,0,0,0,95.26,188a.67.67,0,0,0,.71-.71A12,12,0,0,0,84.74,176,.67.67,0,0,0,84,176.76Z"/><path class="8c7bdd87-f230-4dad-8b43-db87988ce308" d="M72.74,188A12,12,0,0,0,84,176.76a.67.67,0,0,0-.71-.71A12,12,0,0,0,72,187.29.67.67,0,0,0,72.74,188Z"/><path class="8c7bdd87-f230-4dad-8b43-db87988ce308" d="M84.74,200A12,12,0,0,0,96,188.76a.67.67,0,0,0-.71-.71A12,12,0,0,0,84,199.29.67.67,0,0,0,84.74,200Z"/><path class="8c7bdd87-f230-4dad-8b43-db87988ce308" d="M72,188.76A12,12,0,0,0,83.26,200a.67.67,0,0,0,.71-.71A12,12,0,0,0,72.74,188,.67.67,0,0,0,72,188.76Z"/><circle class="8c7bdd87-f230-4dad-8b43-db87988ce308" cx="84" cy="188.02" r="2"/><path class="8c7bdd87-f230-4dad-8b43-db87988ce308" d="M94,176a2,2,0,0,0,2,2h0v-2Z"/><path class="8c7bdd87-f230-4dad-8b43-db87988ce308" d="M72,176v2a2,2,0,0,0,2-2Z"/><path class="8c7bdd87-f230-4dad-8b43-db87988ce308" d="M94,200h2v-2h0A2,2,0,0,0,94,200Z"/><path class="8c7bdd87-f230-4dad-8b43-db87988ce308" d="M72,198v2h2A2,2,0,0,0,72,198Z"/><path class="8c7bdd87-f230-4dad-8b43-db87988ce308" d="M96.74,188A12,12,0,0,0,108,176.76a.67.67,0,0,0-.71-.71A12,12,0,0,0,96,187.29.67.67,0,0,0,96.74,188Z"/><path class="8c7bdd87-f230-4dad-8b43-db87988ce308" d="M96,188.76A12,12,0,0,0,107.26,200a.67.67,0,0,0,.71-.71A12,12,0,0,0,96.74,188,.67.67,0,0,0,96,188.76Z"/><circle class="8c7bdd87-f230-4dad-8b43-db87988ce308" cx="108" cy="188.02" r="2"/><path class="8c7bdd87-f230-4dad-8b43-db87988ce308" d="M96,176v2a2,2,0,0,0,2-2Z"/><path class="8c7bdd87-f230-4dad-8b43-db87988ce308" d="M96,198v2h2A2,2,0,0,0,96,198Z"/><path class="8c7bdd87-f230-4dad-8b43-db87988ce308" d="M12,152.76A12,12,0,0,0,23.26,164a.67.67,0,0,0,.71-.71A12,12,0,0,0,12.74,152,.67.67,0,0,0,12,152.76Z"/><path class="8c7bdd87-f230-4dad-8b43-db87988ce308" d="M.74,164A12,12,0,0,0,12,152.76a.67.67,0,0,0-.71-.71A12,12,0,0,0,0,163.29.67.67,0,0,0,.74,164Z"/><path class="8c7bdd87-f230-4dad-8b43-db87988ce308" d="M12.74,176A12,12,0,0,0,24,164.76a.67.67,0,0,0-.71-.71A12,12,0,0,0,12,175.29.67.67,0,0,0,12.74,176Z"/><path class="8c7bdd87-f230-4dad-8b43-db87988ce308" d="M0,164.76A12,12,0,0,0,11.26,176a.67.67,0,0,0,.71-.71A12,12,0,0,0,.74,164,.67.67,0,0,0,0,164.76Z"/><circle class="8c7bdd87-f230-4dad-8b43-db87988ce308" cx="12" cy="164.02" r="2"/><path class="8c7bdd87-f230-4dad-8b43-db87988ce308" d="M22,152a2,2,0,0,0,2,2h0v-2Z"/><path class="8c7bdd87-f230-4dad-8b43-db87988ce308" d="M0,152v2a2,2,0,0,0,2-2Z"/><path class="8c7bdd87-f230-4dad-8b43-db87988ce308" d="M22,176h2v-2h0A2,2,0,0,0,22,176Z"/><path class="8c7bdd87-f230-4dad-8b43-db87988ce308" d="M0,174v2H2A2,2,0,0,0,0,174Z"/><path class="8c7bdd87-f230-4dad-8b43-db87988ce308" d="M36,152.76A12,12,0,0,0,47.26,164a.67.67,0,0,0,.71-.71A12,12,0,0,0,36.74,152,.67.67,0,0,0,36,152.76Z"/><path class="8c7bdd87-f230-4dad-8b43-db87988ce308" d="M24.74,164A12,12,0,0,0,36,152.76a.67.67,0,0,0-.71-.71A12,12,0,0,0,24,163.29.67.67,0,0,0,24.74,164Z"/><path class="8c7bdd87-f230-4dad-8b43-db87988ce308" d="M36.74,176A12,12,0,0,0,48,164.76a.67.67,0,0,0-.71-.71A12,12,0,0,0,36,175.29.67.67,0,0,0,36.74,176Z"/><path class="8c7bdd87-f230-4dad-8b43-db87988ce308" d="M24,164.76A12,12,0,0,0,35.26,176a.67.67,0,0,0,.71-.71A12,12,0,0,0,24.74,164,.67.67,0,0,0,24,164.76Z"/><circle class="8c7bdd87-f230-4dad-8b43-db87988ce308" cx="36" cy="164.02" r="2"/><path class="8c7bdd87-f230-4dad-8b43-db87988ce308" d="M46,152a2,2,0,0,0,2,2h0v-2Z"/><path class="8c7bdd87-f230-4dad-8b43-db87988ce308" d="M24,152v2a2,2,0,0,0,2-2Z"/><path class="8c7bdd87-f230-4dad-8b43-db87988ce308" d="M46,176h2v-2h0A2,2,0,0,0,46,176Z"/><path class="8c7bdd87-f230-4dad-8b43-db87988ce308" d="M24,174v2h2A2,2,0,0,0,24,174Z"/><path class="8c7bdd87-f230-4dad-8b43-db87988ce308" d="M60,152.76A12,12,0,0,0,71.26,164a.67.67,0,0,0,.71-.71A12,12,0,0,0,60.74,152,.67.67,0,0,0,60,152.76Z"/><path class="8c7bdd87-f230-4dad-8b43-db87988ce308" d="M48.74,164A12,12,0,0,0,60,152.76a.67.67,0,0,0-.71-.71A12,12,0,0,0,48,163.29.67.67,0,0,0,48.74,164Z"/><path class="8c7bdd87-f230-4dad-8b43-db87988ce308" d="M60.74,176A12,12,0,0,0,72,164.76a.67.67,0,0,0-.71-.71A12,12,0,0,0,60,175.29.67.67,0,0,0,60.74,176Z"/><path class="8c7bdd87-f230-4dad-8b43-db87988ce308" d="M48,164.76A12,12,0,0,0,59.26,176a.67.67,0,0,0,.71-.71A12,12,0,0,0,48.74,164,.67.67,0,0,0,48,164.76Z"/><circle class="8c7bdd87-f230-4dad-8b43-db87988ce308" cx="60" cy="164.02" r="2"/><path class="8c7bdd87-f230-4dad-8b43-db87988ce308" d="M70,152a2,2,0,0,0,2,2h0v-2Z"/><path class="8c7bdd87-f230-4dad-8b43-db87988ce308" d="M48,152v2a2,2,0,0,0,2-2Z"/><path class="8c7bdd87-f230-4dad-8b43-db87988ce308" d="M70,176h2v-2h0A2,2,0,0,0,70,176Z"/><path class="8c7bdd87-f230-4dad-8b43-db87988ce308" d="M48,174v2h2A2,2,0,0,0,48,174Z"/><path class="8c7bdd87-f230-4dad-8b43-db87988ce308" d="M72.74,164A12,12,0,0,0,84,152.76a.67.67,0,0,0-.71-.71A12,12,0,0,0,72,163.29.67.67,0,0,0,72.74,164Z"/><path class="8c7bdd87-f230-4dad-8b43-db87988ce308" d="M84.74,176A12,12,0,0,0,96,164.76a.67.67,0,0,0-.71-.71A12,12,0,0,0,84,175.29.67.67,0,0,0,84.74,176Z"/><path class="8c7bdd87-f230-4dad-8b43-db87988ce308" d="M72,164.76A12,12,0,0,0,83.26,176a.67.67,0,0,0,.71-.71A12,12,0,0,0,72.74,164,.67.67,0,0,0,72,164.76Z"/><circle class="8c7bdd87-f230-4dad-8b43-db87988ce308" cx="84" cy="164.02" r="2"/><path class="8c7bdd87-f230-4dad-8b43-db87988ce308" d="M72,152v2a2,2,0,0,0,2-2Z"/><path class="8c7bdd87-f230-4dad-8b43-db87988ce308" d="M94,176h2v-2h0A2,2,0,0,0,94,176Z"/><path class="8c7bdd87-f230-4dad-8b43-db87988ce308" d="M72,174v2h2A2,2,0,0,0,72,174Z"/><path class="8c7bdd87-f230-4dad-8b43-db87988ce308" d="M96,174v2h2A2,2,0,0,0,96,174Z"/><path class="8c7bdd87-f230-4dad-8b43-db87988ce308" d="M12,128.76A12,12,0,0,0,23.26,140a.67.67,0,0,0,.71-.71A12,12,0,0,0,12.74,128,.67.67,0,0,0,12,128.76Z"/><path class="8c7bdd87-f230-4dad-8b43-db87988ce308" d="M.74,140A12,12,0,0,0,12,128.76a.67.67,0,0,0-.71-.71A12,12,0,0,0,0,139.29.67.67,0,0,0,.74,140Z"/><path class="8c7bdd87-f230-4dad-8b43-db87988ce308" d="M12.74,152A12,12,0,0,0,24,140.76a.67.67,0,0,0-.71-.71A12,12,0,0,0,12,151.29.67.67,0,0,0,12.74,152Z"/><path class="8c7bdd87-f230-4dad-8b43-db87988ce308" d="M0,140.76A12,12,0,0,0,11.26,152a.67.67,0,0,0,.71-.71A12,12,0,0,0,.74,140,.67.67,0,0,0,0,140.76Z"/><circle class="8c7bdd87-f230-4dad-8b43-db87988ce308" cx="12" cy="140.02" r="2"/><path class="8c7bdd87-f230-4dad-8b43-db87988ce308" d="M22,128a2,2,0,0,0,2,2h0v-2Z"/><path class="8c7bdd87-f230-4dad-8b43-db87988ce308" d="M0,128v2a2,2,0,0,0,2-2Z"/><path class="8c7bdd87-f230-4dad-8b43-db87988ce308" d="M22,152h2v-2h0A2,2,0,0,0,22,152Z"/><path class="8c7bdd87-f230-4dad-8b43-db87988ce308" d="M0,150v2H2A2,2,0,0,0,0,150Z"/><path class="8c7bdd87-f230-4dad-8b43-db87988ce308" d="M36,128.76A12,12,0,0,0,47.26,140a.67.67,0,0,0,.71-.71A12,12,0,0,0,36.74,128,.67.67,0,0,0,36,128.76Z"/><path class="8c7bdd87-f230-4dad-8b43-db87988ce308" d="M24.74,140A12,12,0,0,0,36,128.76a.67.67,0,0,0-.71-.71A12,12,0,0,0,24,139.29.67.67,0,0,0,24.74,140Z"/><path class="8c7bdd87-f230-4dad-8b43-db87988ce308" d="M36.74,152A12,12,0,0,0,48,140.76a.67.67,0,0,0-.71-.71A12,12,0,0,0,36,151.29.67.67,0,0,0,36.74,152Z"/><path class="8c7bdd87-f230-4dad-8b43-db87988ce308" d="M24,140.76A12,12,0,0,0,35.26,152a.67.67,0,0,0,.71-.71A12,12,0,0,0,24.74,140,.67.67,0,0,0,24,140.76Z"/><circle class="8c7bdd87-f230-4dad-8b43-db87988ce308" cx="36" cy="140.02" r="2"/><path class="8c7bdd87-f230-4dad-8b43-db87988ce308" d="M46,128a2,2,0,0,0,2,2h0v-2Z"/><path class="8c7bdd87-f230-4dad-8b43-db87988ce308" d="M24,128v2a2,2,0,0,0,2-2Z"/><path class="8c7bdd87-f230-4dad-8b43-db87988ce308" d="M46,152h2v-2h0A2,2,0,0,0,46,152Z"/><path class="8c7bdd87-f230-4dad-8b43-db87988ce308" d="M24,150v2h2A2,2,0,0,0,24,150Z"/><path class="8c7bdd87-f230-4dad-8b43-db87988ce308" d="M48.74,140A12,12,0,0,0,60,128.76a.67.67,0,0,0-.71-.71A12,12,0,0,0,48,139.29.67.67,0,0,0,48.74,140Z"/><path class="8c7bdd87-f230-4dad-8b43-db87988ce308" d="M60.74,152A12,12,0,0,0,72,140.76a.67.67,0,0,0-.71-.71A12,12,0,0,0,60,151.29.67.67,0,0,0,60.74,152Z"/><path class="8c7bdd87-f230-4dad-8b43-db87988ce308" d="M48,140.76A12,12,0,0,0,59.26,152a.67.67,0,0,0,.71-.71A12,12,0,0,0,48.74,140,.67.67,0,0,0,48,140.76Z"/><circle class="8c7bdd87-f230-4dad-8b43-db87988ce308" cx="60" cy="140.02" r="2"/><path class="8c7bdd87-f230-4dad-8b43-db87988ce308" d="M48,128v2a2,2,0,0,0,2-2Z"/><path class="8c7bdd87-f230-4dad-8b43-db87988ce308" d="M70,152h2v-2h0A2,2,0,0,0,70,152Z"/><path class="8c7bdd87-f230-4dad-8b43-db87988ce308" d="M48,150v2h2A2,2,0,0,0,48,150Z"/><path class="8c7bdd87-f230-4dad-8b43-db87988ce308" d="M72,150v2h2A2,2,0,0,0,72,150Z"/><path class="8c7bdd87-f230-4dad-8b43-db87988ce308" d="M12,104.76A12,12,0,0,0,23.26,116a.67.67,0,0,0,.71-.71A12,12,0,0,0,12.74,104,.67.67,0,0,0,12,104.76Z"/><path class="8c7bdd87-f230-4dad-8b43-db87988ce308" d="M12.74,128A12,12,0,0,0,24,116.76a.67.67,0,0,0-.71-.71A12,12,0,0,0,12,127.29.67.67,0,0,0,12.74,128Z"/><path class="8c7bdd87-f230-4dad-8b43-db87988ce308" d="M0,116.76A12,12,0,0,0,11.26,128a.67.67,0,0,0,.71-.71A12,12,0,0,0,.74,116,.67.67,0,0,0,0,116.76Z"/><circle class="8c7bdd87-f230-4dad-8b43-db87988ce308" cx="12" cy="116.02" r="2"/><path class="8c7bdd87-f230-4dad-8b43-db87988ce308" d="M22,104a2,2,0,0,0,2,2h0v-2Z"/><path class="8c7bdd87-f230-4dad-8b43-db87988ce308" d="M22,128h2v-2h0A2,2,0,0,0,22,128Z"/><path class="8c7bdd87-f230-4dad-8b43-db87988ce308" d="M0,126v2H2A2,2,0,0,0,0,126Z"/><path class="8c7bdd87-f230-4dad-8b43-db87988ce308" d="M24.74,116A12,12,0,0,0,36,104.76a.67.67,0,0,0-.71-.71A12,12,0,0,0,24,115.29.67.67,0,0,0,24.74,116Z"/><path class="8c7bdd87-f230-4dad-8b43-db87988ce308" d="M36.74,128A12,12,0,0,0,48,116.76a.67.67,0,0,0-.71-.71A12,12,0,0,0,36,127.29.67.67,0,0,0,36.74,128Z"/><path class="8c7bdd87-f230-4dad-8b43-db87988ce308" d="M24,116.76A12,12,0,0,0,35.26,128a.67.67,0,0,0,.71-.71A12,12,0,0,0,24.74,116,.67.67,0,0,0,24,116.76Z"/><circle class="8c7bdd87-f230-4dad-8b43-db87988ce308" cx="36" cy="116.02" r="2"/><path class="8c7bdd87-f230-4dad-8b43-db87988ce308" d="M24,104v2a2,2,0,0,0,2-2Z"/><path class="8c7bdd87-f230-4dad-8b43-db87988ce308" d="M46,128h2v-2h0A2,2,0,0,0,46,128Z"/><path class="8c7bdd87-f230-4dad-8b43-db87988ce308" d="M24,126v2h2A2,2,0,0,0,24,126Z"/><path class="8c7bdd87-f230-4dad-8b43-db87988ce308" d="M48,126v2h2A2,2,0,0,0,48,126Z"/><path class="8c7bdd87-f230-4dad-8b43-db87988ce308" d="M24,102v2h2A2,2,0,0,0,24,102Z"/><path class="8c7bdd87-f230-4dad-8b43-db87988ce308" d="M22,104h2v-2h0A2,2,0,0,0,22,104Z"/><path class="8c7bdd87-f230-4dad-8b43-db87988ce308" d="M428,176.76A12,12,0,0,1,416.74,188a.67.67,0,0,1-.71-.71A12,12,0,0,1,427.26,176,.67.67,0,0,1,428,176.76Z"/><path class="8c7bdd87-f230-4dad-8b43-db87988ce308" d="M439.26,188A12,12,0,0,1,428,176.76a.67.67,0,0,1,.71-.71A12,12,0,0,1,440,187.29.67.67,0,0,1,439.26,188Z"/><path class="8c7bdd87-f230-4dad-8b43-db87988ce308" d="M427.26,200A12,12,0,0,1,416,188.76a.67.67,0,0,1,.71-.71A12,12,0,0,1,428,199.29.67.67,0,0,1,427.26,200Z"/><path class="8c7bdd87-f230-4dad-8b43-db87988ce308" d="M440,188.76A12,12,0,0,1,428.74,200a.67.67,0,0,1-.71-.71A12,12,0,0,1,439.26,188,.67.67,0,0,1,440,188.76Z"/><circle class="8c7bdd87-f230-4dad-8b43-db87988ce308" cx="428" cy="188.02" r="2"/><path class="8c7bdd87-f230-4dad-8b43-db87988ce308" d="M418,176a2,2,0,0,1-2,2h0v-2Z"/><path class="8c7bdd87-f230-4dad-8b43-db87988ce308" d="M440,176v2a2,2,0,0,1-2-2Z"/><path class="8c7bdd87-f230-4dad-8b43-db87988ce308" d="M418,200h-2v-2h0A2,2,0,0,1,418,200Z"/><path class="8c7bdd87-f230-4dad-8b43-db87988ce308" d="M440,198v2h-2A2,2,0,0,1,440,198Z"/><path class="8c7bdd87-f230-4dad-8b43-db87988ce308" d="M404,176.76A12,12,0,0,1,392.74,188a.67.67,0,0,1-.71-.71A12,12,0,0,1,403.26,176,.67.67,0,0,1,404,176.76Z"/><path class="8c7bdd87-f230-4dad-8b43-db87988ce308" d="M415.26,188A12,12,0,0,1,404,176.76a.67.67,0,0,1,.71-.71A12,12,0,0,1,416,187.29.67.67,0,0,1,415.26,188Z"/><path class="8c7bdd87-f230-4dad-8b43-db87988ce308" d="M403.26,200A12,12,0,0,1,392,188.76a.67.67,0,0,1,.71-.71A12,12,0,0,1,404,199.29.67.67,0,0,1,403.26,200Z"/><path class="8c7bdd87-f230-4dad-8b43-db87988ce308" d="M416,188.76A12,12,0,0,1,404.74,200a.67.67,0,0,1-.71-.71A12,12,0,0,1,415.26,188,.67.67,0,0,1,416,188.76Z"/><circle class="8c7bdd87-f230-4dad-8b43-db87988ce308" cx="404" cy="188.02" r="2"/><path class="8c7bdd87-f230-4dad-8b43-db87988ce308" d="M394,176a2,2,0,0,1-2,2h0v-2Z"/><path class="8c7bdd87-f230-4dad-8b43-db87988ce308" d="M416,176v2a2,2,0,0,1-2-2Z"/><path class="8c7bdd87-f230-4dad-8b43-db87988ce308" d="M394,200h-2v-2h0A2,2,0,0,1,394,200Z"/><path class="8c7bdd87-f230-4dad-8b43-db87988ce308" d="M416,198v2h-2A2,2,0,0,1,416,198Z"/><path class="8c7bdd87-f230-4dad-8b43-db87988ce308" d="M380,176.76A12,12,0,0,1,368.74,188a.67.67,0,0,1-.71-.71A12,12,0,0,1,379.26,176,.67.67,0,0,1,380,176.76Z"/><path class="8c7bdd87-f230-4dad-8b43-db87988ce308" d="M391.26,188A12,12,0,0,1,380,176.76a.67.67,0,0,1,.71-.71A12,12,0,0,1,392,187.29.67.67,0,0,1,391.26,188Z"/><path class="8c7bdd87-f230-4dad-8b43-db87988ce308" d="M379.26,200A12,12,0,0,1,368,188.76a.67.67,0,0,1,.71-.71A12,12,0,0,1,380,199.29.67.67,0,0,1,379.26,200Z"/><path class="8c7bdd87-f230-4dad-8b43-db87988ce308" d="M392,188.76A12,12,0,0,1,380.74,200a.67.67,0,0,1-.71-.71A12,12,0,0,1,391.26,188,.67.67,0,0,1,392,188.76Z"/><circle class="8c7bdd87-f230-4dad-8b43-db87988ce308" cx="380" cy="188.02" r="2"/><path class="8c7bdd87-f230-4dad-8b43-db87988ce308" d="M370,176a2,2,0,0,1-2,2h0v-2Z"/><path class="8c7bdd87-f230-4dad-8b43-db87988ce308" d="M392,176v2a2,2,0,0,1-2-2Z"/><path class="8c7bdd87-f230-4dad-8b43-db87988ce308" d="M370,200h-2v-2h0A2,2,0,0,1,370,200Z"/><path class="8c7bdd87-f230-4dad-8b43-db87988ce308" d="M392,198v2h-2A2,2,0,0,1,392,198Z"/><path class="8c7bdd87-f230-4dad-8b43-db87988ce308" d="M356,176.76A12,12,0,0,1,344.74,188a.67.67,0,0,1-.71-.71A12,12,0,0,1,355.26,176,.67.67,0,0,1,356,176.76Z"/><path class="8c7bdd87-f230-4dad-8b43-db87988ce308" d="M367.26,188A12,12,0,0,1,356,176.76a.67.67,0,0,1,.71-.71A12,12,0,0,1,368,187.29.67.67,0,0,1,367.26,188Z"/><path class="8c7bdd87-f230-4dad-8b43-db87988ce308" d="M355.26,200A12,12,0,0,1,344,188.76a.67.67,0,0,1,.71-.71A12,12,0,0,1,356,199.29.67.67,0,0,1,355.26,200Z"/><path class="8c7bdd87-f230-4dad-8b43-db87988ce308" d="M368,188.76A12,12,0,0,1,356.74,200a.67.67,0,0,1-.71-.71A12,12,0,0,1,367.26,188,.67.67,0,0,1,368,188.76Z"/><circle class="8c7bdd87-f230-4dad-8b43-db87988ce308" cx="356" cy="188.02" r="2"/><path class="8c7bdd87-f230-4dad-8b43-db87988ce308" d="M346,176a2,2,0,0,1-2,2h0v-2Z"/><path class="8c7bdd87-f230-4dad-8b43-db87988ce308" d="M368,176v2a2,2,0,0,1-2-2Z"/><path class="8c7bdd87-f230-4dad-8b43-db87988ce308" d="M346,200h-2v-2h0A2,2,0,0,1,346,200Z"/><path class="8c7bdd87-f230-4dad-8b43-db87988ce308" d="M368,198v2h-2A2,2,0,0,1,368,198Z"/><path class="8c7bdd87-f230-4dad-8b43-db87988ce308" d="M343.26,188A12,12,0,0,1,332,176.76a.67.67,0,0,1,.71-.71A12,12,0,0,1,344,187.29.67.67,0,0,1,343.26,188Z"/><path class="8c7bdd87-f230-4dad-8b43-db87988ce308" d="M344,188.76A12,12,0,0,1,332.74,200a.67.67,0,0,1-.71-.71A12,12,0,0,1,343.26,188,.67.67,0,0,1,344,188.76Z"/><circle class="8c7bdd87-f230-4dad-8b43-db87988ce308" cx="332" cy="188.02" r="2"/><path class="8c7bdd87-f230-4dad-8b43-db87988ce308" d="M344,176v2a2,2,0,0,1-2-2Z"/><path class="8c7bdd87-f230-4dad-8b43-db87988ce308" d="M344,198v2h-2A2,2,0,0,1,344,198Z"/><path class="8c7bdd87-f230-4dad-8b43-db87988ce308" d="M428,152.76A12,12,0,0,1,416.74,164a.67.67,0,0,1-.71-.71A12,12,0,0,1,427.26,152,.67.67,0,0,1,428,152.76Z"/><path class="8c7bdd87-f230-4dad-8b43-db87988ce308" d="M439.26,164A12,12,0,0,1,428,152.76a.67.67,0,0,1,.71-.71A12,12,0,0,1,440,163.29.67.67,0,0,1,439.26,164Z"/><path class="8c7bdd87-f230-4dad-8b43-db87988ce308" d="M427.26,176A12,12,0,0,1,416,164.76a.67.67,0,0,1,.71-.71A12,12,0,0,1,428,175.29.67.67,0,0,1,427.26,176Z"/><path class="8c7bdd87-f230-4dad-8b43-db87988ce308" d="M440,164.76A12,12,0,0,1,428.74,176a.67.67,0,0,1-.71-.71A12,12,0,0,1,439.26,164,.67.67,0,0,1,440,164.76Z"/><circle class="8c7bdd87-f230-4dad-8b43-db87988ce308" cx="428" cy="164.02" r="2"/><path class="8c7bdd87-f230-4dad-8b43-db87988ce308" d="M418,152a2,2,0,0,1-2,2h0v-2Z"/><path class="8c7bdd87-f230-4dad-8b43-db87988ce308" d="M440,152v2a2,2,0,0,1-2-2Z"/><path class="8c7bdd87-f230-4dad-8b43-db87988ce308" d="M418,176h-2v-2h0A2,2,0,0,1,418,176Z"/><path class="8c7bdd87-f230-4dad-8b43-db87988ce308" d="M440,174v2h-2A2,2,0,0,1,440,174Z"/><path class="8c7bdd87-f230-4dad-8b43-db87988ce308" d="M404,152.76A12,12,0,0,1,392.74,164a.67.67,0,0,1-.71-.71A12,12,0,0,1,403.26,152,.67.67,0,0,1,404,152.76Z"/><path class="8c7bdd87-f230-4dad-8b43-db87988ce308" d="M415.26,164A12,12,0,0,1,404,152.76a.67.67,0,0,1,.71-.71A12,12,0,0,1,416,163.29.67.67,0,0,1,415.26,164Z"/><path class="8c7bdd87-f230-4dad-8b43-db87988ce308" d="M403.26,176A12,12,0,0,1,392,164.76a.67.67,0,0,1,.71-.71A12,12,0,0,1,404,175.29.67.67,0,0,1,403.26,176Z"/><path class="8c7bdd87-f230-4dad-8b43-db87988ce308" d="M416,164.76A12,12,0,0,1,404.74,176a.67.67,0,0,1-.71-.71A12,12,0,0,1,415.26,164,.67.67,0,0,1,416,164.76Z"/><circle class="8c7bdd87-f230-4dad-8b43-db87988ce308" cx="404" cy="164.02" r="2"/><path class="8c7bdd87-f230-4dad-8b43-db87988ce308" d="M394,152a2,2,0,0,1-2,2h0v-2Z"/><path class="8c7bdd87-f230-4dad-8b43-db87988ce308" d="M416,152v2a2,2,0,0,1-2-2Z"/><path class="8c7bdd87-f230-4dad-8b43-db87988ce308" d="M394,176h-2v-2h0A2,2,0,0,1,394,176Z"/><path class="8c7bdd87-f230-4dad-8b43-db87988ce308" d="M416,174v2h-2A2,2,0,0,1,416,174Z"/><path class="8c7bdd87-f230-4dad-8b43-db87988ce308" d="M380,152.76A12,12,0,0,1,368.74,164a.67.67,0,0,1-.71-.71A12,12,0,0,1,379.26,152,.67.67,0,0,1,380,152.76Z"/><path class="8c7bdd87-f230-4dad-8b43-db87988ce308" d="M391.26,164A12,12,0,0,1,380,152.76a.67.67,0,0,1,.71-.71A12,12,0,0,1,392,163.29.67.67,0,0,1,391.26,164Z"/><path class="8c7bdd87-f230-4dad-8b43-db87988ce308" d="M379.26,176A12,12,0,0,1,368,164.76a.67.67,0,0,1,.71-.71A12,12,0,0,1,380,175.29.67.67,0,0,1,379.26,176Z"/><path class="8c7bdd87-f230-4dad-8b43-db87988ce308" d="M392,164.76A12,12,0,0,1,380.74,176a.67.67,0,0,1-.71-.71A12,12,0,0,1,391.26,164,.67.67,0,0,1,392,164.76Z"/><circle class="8c7bdd87-f230-4dad-8b43-db87988ce308" cx="380" cy="164.02" r="2"/><path class="8c7bdd87-f230-4dad-8b43-db87988ce308" d="M370,152a2,2,0,0,1-2,2h0v-2Z"/><path class="8c7bdd87-f230-4dad-8b43-db87988ce308" d="M392,152v2a2,2,0,0,1-2-2Z"/><path class="8c7bdd87-f230-4dad-8b43-db87988ce308" d="M370,176h-2v-2h0A2,2,0,0,1,370,176Z"/><path class="8c7bdd87-f230-4dad-8b43-db87988ce308" d="M392,174v2h-2A2,2,0,0,1,392,174Z"/><path class="8c7bdd87-f230-4dad-8b43-db87988ce308" d="M367.26,164A12,12,0,0,1,356,152.76a.67.67,0,0,1,.71-.71A12,12,0,0,1,368,163.29.67.67,0,0,1,367.26,164Z"/><path class="8c7bdd87-f230-4dad-8b43-db87988ce308" d="M355.26,176A12,12,0,0,1,344,164.76a.67.67,0,0,1,.71-.71A12,12,0,0,1,356,175.29.67.67,0,0,1,355.26,176Z"/><path class="8c7bdd87-f230-4dad-8b43-db87988ce308" d="M368,164.76A12,12,0,0,1,356.74,176a.67.67,0,0,1-.71-.71A12,12,0,0,1,367.26,164,.67.67,0,0,1,368,164.76Z"/><circle class="8c7bdd87-f230-4dad-8b43-db87988ce308" cx="356" cy="164.02" r="2"/><path class="8c7bdd87-f230-4dad-8b43-db87988ce308" d="M368,152v2a2,2,0,0,1-2-2Z"/><path class="8c7bdd87-f230-4dad-8b43-db87988ce308" d="M346,176h-2v-2h0A2,2,0,0,1,346,176Z"/><path class="8c7bdd87-f230-4dad-8b43-db87988ce308" d="M368,174v2h-2A2,2,0,0,1,368,174Z"/><path class="8c7bdd87-f230-4dad-8b43-db87988ce308" d="M344,174v2h-2A2,2,0,0,1,344,174Z"/><path class="8c7bdd87-f230-4dad-8b43-db87988ce308" d="M428,128.76A12,12,0,0,1,416.74,140a.67.67,0,0,1-.71-.71A12,12,0,0,1,427.26,128,.67.67,0,0,1,428,128.76Z"/><path class="8c7bdd87-f230-4dad-8b43-db87988ce308" d="M439.26,140A12,12,0,0,1,428,128.76a.67.67,0,0,1,.71-.71A12,12,0,0,1,440,139.29.67.67,0,0,1,439.26,140Z"/><path class="8c7bdd87-f230-4dad-8b43-db87988ce308" d="M427.26,152A12,12,0,0,1,416,140.76a.67.67,0,0,1,.71-.71A12,12,0,0,1,428,151.29.67.67,0,0,1,427.26,152Z"/><path class="8c7bdd87-f230-4dad-8b43-db87988ce308" d="M440,140.76A12,12,0,0,1,428.74,152a.67.67,0,0,1-.71-.71A12,12,0,0,1,439.26,140,.67.67,0,0,1,440,140.76Z"/><circle class="8c7bdd87-f230-4dad-8b43-db87988ce308" cx="428" cy="140.02" r="2"/><path class="8c7bdd87-f230-4dad-8b43-db87988ce308" d="M418,128a2,2,0,0,1-2,2h0v-2Z"/><path class="8c7bdd87-f230-4dad-8b43-db87988ce308" d="M440,128v2a2,2,0,0,1-2-2Z"/><path class="8c7bdd87-f230-4dad-8b43-db87988ce308" d="M418,152h-2v-2h0A2,2,0,0,1,418,152Z"/><path class="8c7bdd87-f230-4dad-8b43-db87988ce308" d="M440,150v2h-2A2,2,0,0,1,440,150Z"/><path class="8c7bdd87-f230-4dad-8b43-db87988ce308" d="M404,128.76A12,12,0,0,1,392.74,140a.67.67,0,0,1-.71-.71A12,12,0,0,1,403.26,128,.67.67,0,0,1,404,128.76Z"/><path class="8c7bdd87-f230-4dad-8b43-db87988ce308" d="M415.26,140A12,12,0,0,1,404,128.76a.67.67,0,0,1,.71-.71A12,12,0,0,1,416,139.29.67.67,0,0,1,415.26,140Z"/><path class="8c7bdd87-f230-4dad-8b43-db87988ce308" d="M403.26,152A12,12,0,0,1,392,140.76a.67.67,0,0,1,.71-.71A12,12,0,0,1,404,151.29.67.67,0,0,1,403.26,152Z"/><path class="8c7bdd87-f230-4dad-8b43-db87988ce308" d="M416,140.76A12,12,0,0,1,404.74,152a.67.67,0,0,1-.71-.71A12,12,0,0,1,415.26,140,.67.67,0,0,1,416,140.76Z"/><circle class="8c7bdd87-f230-4dad-8b43-db87988ce308" cx="404" cy="140.02" r="2"/><path class="8c7bdd87-f230-4dad-8b43-db87988ce308" d="M394,128a2,2,0,0,1-2,2h0v-2Z"/><path class="8c7bdd87-f230-4dad-8b43-db87988ce308" d="M416,128v2a2,2,0,0,1-2-2Z"/><path class="8c7bdd87-f230-4dad-8b43-db87988ce308" d="M394,152h-2v-2h0A2,2,0,0,1,394,152Z"/><path class="8c7bdd87-f230-4dad-8b43-db87988ce308" d="M416,150v2h-2A2,2,0,0,1,416,150Z"/><path class="8c7bdd87-f230-4dad-8b43-db87988ce308" d="M391.26,140A12,12,0,0,1,380,128.76a.67.67,0,0,1,.71-.71A12,12,0,0,1,392,139.29.67.67,0,0,1,391.26,140Z"/><path class="8c7bdd87-f230-4dad-8b43-db87988ce308" d="M379.26,152A12,12,0,0,1,368,140.76a.67.67,0,0,1,.71-.71A12,12,0,0,1,380,151.29.67.67,0,0,1,379.26,152Z"/><path class="8c7bdd87-f230-4dad-8b43-db87988ce308" d="M392,140.76A12,12,0,0,1,380.74,152a.67.67,0,0,1-.71-.71A12,12,0,0,1,391.26,140,.67.67,0,0,1,392,140.76Z"/><circle class="8c7bdd87-f230-4dad-8b43-db87988ce308" cx="380" cy="140.02" r="2"/><path class="8c7bdd87-f230-4dad-8b43-db87988ce308" d="M392,128v2a2,2,0,0,1-2-2Z"/><path class="8c7bdd87-f230-4dad-8b43-db87988ce308" d="M370,152h-2v-2h0A2,2,0,0,1,370,152Z"/><path class="8c7bdd87-f230-4dad-8b43-db87988ce308" d="M392,150v2h-2A2,2,0,0,1,392,150Z"/><path class="8c7bdd87-f230-4dad-8b43-db87988ce308" d="M368,150v2h-2A2,2,0,0,1,368,150Z"/><path class="8c7bdd87-f230-4dad-8b43-db87988ce308" d="M428,104.76A12,12,0,0,1,416.74,116a.67.67,0,0,1-.71-.71A12,12,0,0,1,427.26,104,.67.67,0,0,1,428,104.76Z"/><path class="8c7bdd87-f230-4dad-8b43-db87988ce308" d="M427.26,128A12,12,0,0,1,416,116.76a.67.67,0,0,1,.71-.71A12,12,0,0,1,428,127.29.67.67,0,0,1,427.26,128Z"/><path class="8c7bdd87-f230-4dad-8b43-db87988ce308" d="M440,116.76A12,12,0,0,1,428.74,128a.67.67,0,0,1-.71-.71A12,12,0,0,1,439.26,116,.67.67,0,0,1,440,116.76Z"/><circle class="8c7bdd87-f230-4dad-8b43-db87988ce308" cx="428" cy="116.02" r="2"/><path class="8c7bdd87-f230-4dad-8b43-db87988ce308" d="M418,104a2,2,0,0,1-2,2h0v-2Z"/><path class="8c7bdd87-f230-4dad-8b43-db87988ce308" d="M418,128h-2v-2h0A2,2,0,0,1,418,128Z"/><path class="8c7bdd87-f230-4dad-8b43-db87988ce308" d="M440,126v2h-2A2,2,0,0,1,440,126Z"/><path class="8c7bdd87-f230-4dad-8b43-db87988ce308" d="M415.26,116A12,12,0,0,1,404,104.76a.67.67,0,0,1,.71-.71A12,12,0,0,1,416,115.29.67.67,0,0,1,415.26,116Z"/><path class="8c7bdd87-f230-4dad-8b43-db87988ce308" d="M403.26,128A12,12,0,0,1,392,116.76a.67.67,0,0,1,.71-.71A12,12,0,0,1,404,127.29.67.67,0,0,1,403.26,128Z"/><path class="8c7bdd87-f230-4dad-8b43-db87988ce308" d="M416,116.76A12,12,0,0,1,404.74,128a.67.67,0,0,1-.71-.71A12,12,0,0,1,415.26,116,.67.67,0,0,1,416,116.76Z"/><circle class="8c7bdd87-f230-4dad-8b43-db87988ce308" cx="404" cy="116.02" r="2"/><path class="8c7bdd87-f230-4dad-8b43-db87988ce308" d="M416,104v2a2,2,0,0,1-2-2Z"/><path class="8c7bdd87-f230-4dad-8b43-db87988ce308" d="M394,128h-2v-2h0A2,2,0,0,1,394,128Z"/><path class="8c7bdd87-f230-4dad-8b43-db87988ce308" d="M416,126v2h-2A2,2,0,0,1,416,126Z"/><path class="8c7bdd87-f230-4dad-8b43-db87988ce308" d="M392,126v2h-2A2,2,0,0,1,392,126Z"/><path class="8c7bdd87-f230-4dad-8b43-db87988ce308" d="M416,102v2h-2A2,2,0,0,1,416,102Z"/><path class="8c7bdd87-f230-4dad-8b43-db87988ce308" d="M418,104h-2v-2h0A2,2,0,0,1,418,104Z"/></g></g></svg>